Patient4_TMGait_0pt7_02_left_51_EMG.mot
version=1
nRows=26
nColumns=33
inDegrees=no
endheader
time	1LAddLong	2LGlutMax	3LGlutMed	4LIliopsoas	5LSemiMemb	6LBicFemLong	7LRecFem	8LVastMed	9LVastLat	10LGasMed	11LTibAnt	12lTibPost	13LPeroneusLong	14LSol	15LExtDigLong	16LFlexDigLong	17RAddLong	18RGlutMax	19RGlutMed	20RIliopsoas	21RSemiMemb	22RBicFemLong	23RRecFem	24RVastMed	25RVastLat	26RGasMed	27RTibAnt	28RTibPost	29RPeroneusLong	30RSol	31RExtDigLong	32RFlexDigLong
58.41	0.023651	0.45136	-0.03418	-0.003204	-0.00351	-0.01297	0.024109	0.007019	0.17609	-0.014954	-0.19775	0.02182	0.023499	-0.036316	-0.087891	-0.031433	0.008087	-0.46081	-0.14816	0.011749	-0.009613	-0.031891	-0.24246	-0.10849	-0.058441	-0.028229	0.44861	0.006714	-0.1857	-0.091553	-0.005188	-0.011139
58.411	-0.048828	0.47516	-0.023499	0.003357	-0.008545	-0.004578	-0.014648	0.011597	0.19714	-0.017395	0.021973	0.009155	-0.005188	-0.02121	0.052338	-0.023193	-0.000153	-0.52856	-0.78461	0.02655	-0.006104	0.020294	-0.12009	-0.01297	-0.020905	-0.022583	0.59601	-0.001678	-0.21164	-0.042572	-0.013885	-0.007935
58.412	-0.027924	0.44937	-0.019989	-0.011597	-0.012512	0.011292	-0.051117	0.011292	0.22049	-0.022583	0.020599	0.009308	0.00351	-0.043945	0.12894	-0.025024	0.020752	-0.57632	-0.49194	-0.02655	0.047913	0.10819	-0.059967	-0.087128	-0.099335	-0.009308	0.60791	0.000305	-0.10941	-0.085449	-0.004578	-0.011139
58.413	0.029755	0.44601	-0.029602	-0.022888	-0.019073	0.018768	-0.072479	0.01297	0.24841	-0.00946	-0.063171	0.003967	0.037537	-0.079803	-0.24429	-0.023651	-0.001068	-0.52872	-0.47455	-0.11627	0.016479	0.12589	-0.121	-0.14633	-0.04837	-0.010681	0.61462	-0.000916	-0.009918	-0.14191	-0.002899	-0.012817
58.414	0.015564	0.45487	-0.034637	-0.007019	-0.009766	0.004272	-0.10681	0.010986	0.26413	-0.019379	-0.017548	0.010071	0.067749	-0.063629	-0.12711	-0.018616	-0.003662	-0.50644	-0.43793	-0.10895	-0.009766	0.070496	-0.1239	-0.023956	0.075989	-0.00946	0.15259	-0.001373	-0.049896	-0.24353	-0.004883	-0.009766
58.415	0.014191	0.41122	-0.01297	0.018158	-0.006409	0.002136	-0.10712	0.010834	0.27802	-0.012512	-0.01709	0.013885	0.10315	-0.063324	0.018311	-0.015259	0.019836	-0.54672	-0.28564	-0.046844	-0.028534	-0.01297	-0.021515	-0.072021	0.050659	-0.001678	-0.55191	-0.002594	0.01236	-0.26443	0.005493	-0.011292
58.416	0.000305	0.36133	-0.006561	0.041656	-0.007324	-0.005646	-0.091248	0.01236	0.28595	-0.01709	0.00473	0.011902	0.10651	-0.056152	0.10162	-0.027618	0.04364	-0.63004	-0.091248	0.020905	-0.045776	-0.11185	0.034637	-0.14191	-0.007324	-0.001678	-1.2965	0.000153	0.13031	-0.28442	-0.003052	-0.007629
58.417	-0.010376	0.31326	0.006714	0.065002	-0.006714	-0.009613	-0.056152	0.006409	0.28961	-0.039215	0.024872	0.002899	0.11002	-0.013428	-0.17425	-0.015564	0.055237	-0.70053	-0.32089	0.086212	-0.055542	-0.16998	-0.093079	-0.081787	0.077667	-0.005951	-1.227	-0.004272	0.031891	-0.28137	-0.009003	-0.001678
58.418	0.00824	0.29587	-0.036469	0.08316	-0.010681	-0.015259	-0.052338	0.008698	0.29862	-0.039368	0.035553	0.007477	0.1413	0.004425	-0.055695	-0.00824	0.074158	-0.84808	0.1828	0.12589	-0.058289	-0.2507	-0.037079	-0.083466	0.052185	-0.000458	-0.80261	-0.006256	0.082855	-0.27847	-0.00473	-0.002136
58.419	0.008392	0.29159	-0.02594	0.058289	-0.021667	0.002441	-0.043182	0.01236	0.29648	-0.003815	0.14328	0.008698	0.095367	0.037231	-0.013275	-0.005493	0.046692	-0.80658	0.07843	0.13428	-0.13779	-0.457	-0.0177	-0.041962	0.087433	-0.00061	-0.69824	-0.008392	0.12711	-0.28183	-0.004883	-0.001526
58.42	0.005646	0.29739	-0.002899	-0.007477	-0.003662	-0.01236	-0.029907	0.005798	0.29221	-0.00885	0.14145	0.004578	0.027161	0.055847	0.12878	-0.025635	0.03006	-0.79224	-0.1796	0.03891	-0.44327	-0.40558	0.007629	-0.025787	0.062103	0.007629	-0.41641	-0.002136	0.19363	-0.36423	-0.003662	-0.002441
58.421	0.006714	0.28473	-0.016174	-0.032196	-0.004578	-0.015106	-0.032959	0.009766	0.28931	-0.068817	0.04715	-0.000458	-0.021973	0.036316	0.048523	-0.007629	0.030365	-0.76752	-0.27954	-0.04364	-0.37979	-0.24735	0.02594	-0.10834	0.021667	0.003815	-0.32593	-0.004578	0.12436	-0.23148	-0.005341	0.000458
58.422	-0.000916	0.28351	-0.041504	-0.009613	-0.012512	-0.02655	-0.023956	0.014191	0.29297	-0.121	-0.10193	0.000916	-0.011597	-0.027008	-0.14374	-0.005951	0.03952	-0.77408	-0.03418	-0.003052	-0.34393	-0.11414	0.07309	-0.14496	-0.004425	0.007324	-0.30304	-0.002594	0.13702	0.018463	-0.003967	-0.001678
58.423	0.005188	0.28595	-0.052948	-0.011292	-0.015717	-0.003967	0.007935	0.00885	0.2977	-0.13275	-0.058746	0.013428	-0.063934	-0.096436	0.003052	-0.018005	0.021973	-0.74631	0.50461	0.043793	-0.083466	0.085907	0.032349	-0.14282	0.014801	0.007629	0.053711	-0.002289	0.040436	0.2179	-0.00412	-0.001831
58.424	-0.000458	0.31815	0.019379	-0.00473	-0.020142	0.014648	0.003052	0.012207	0.29968	-0.1474	-0.012665	0.001984	-0.0383	-0.12268	0.057983	-0.023651	0.002136	-0.7193	-0.112	0.072784	0.075531	0.26855	0.042572	-0.16632	0.015259	-0.002289	0.26871	-0.010834	0.041962	0.3186	-0.002441	-0.001984
58.425	0.002899	0.35248	0.028839	-0.006561	-0.009766	0.000305	0.007629	0.00824	0.29419	-0.061646	-0.013733	0.017853	-0.001526	-0.1181	0.051117	-0.010376	-0.022583	-0.73181	-0.6308	0.07019	-0.19928	0.48294	-0.04715	-0.079041	0.041351	-0.012054	0.62042	0.005646	0.029907	0.41611	-0.003967	-0.003204
58.426	0.015564	0.3508	0.014648	-0.016785	-0.023193	0.005951	0.038605	0.011902	0.30914	0.078278	0.012512	0.005646	0.040283	-0.0737	0.077667	-0.010071	-0.058899	-0.65948	-0.51758	-0.008087	-0.19012	0.48798	-0.004578	0.031891	0.059662	-0.012817	0.4538	-0.003052	0.052948	0.37735	-0.004578	-0.00885
58.427	0.005188	0.3183	-0.001984	-0.001526	-0.018616	-0.008087	0.045471	0.009918	0.31082	0.13733	0.00473	-0.016937	0.088348	-0.09903	0.057678	-0.00412	-0.076294	-0.6398	0.1445	-0.11108	-0.098572	0.37354	0.028381	0.20599	0.06897	-0.015106	0.00946	-0.002747	0.20279	0.22537	-0.007324	-0.017242
58.428	-0.001831	0.30243	-0.029144	0.009308	-0.013123	-0.002594	0.053711	0.00946	0.29633	0.13992	0.006561	0.007477	0.052795	-0.07782	0.041809	-0.000153	-0.050354	-0.65796	0.31815	-0.092163	0.058899	0.3096	0.10223	0.17777	0.00412	-0.014038	-0.15595	-0.004578	0.22232	0.24872	-0.003815	-0.012665
58.429	-0.005341	0.32196	-0.084534	0.011444	-0.008545	-0.009003	0.056305	0.012512	0.29404	0.097656	0.016174	-0.003815	0.040131	-0.081177	-0.028076	-0.010834	-0.029907	-0.67856	-0.55924	-0.024414	0.38773	0.14908	0.06012	0.073547	-0.01236	-0.016022	0.007019	-0.003815	0.069275	0.26016	-0.003052	-0.013428
58.43	-0.012817	0.31464	-0.088043	0.017242	-0.006409	-0.013428	0.050659	0.003052	0.28748	0.049591	0.008545	0.009308	0.020294	-0.082245	-0.11093	-0.006714	-0.046692	-0.71304	-0.43182	-0.002441	0.23651	-0.031128	0.048981	0.12283	0.008698	-0.00946	0.072632	-0.00351	-0.04715	0.21851	-0.003052	-0.020752
58.431	-0.017242	0.28061	-0.041199	0.031586	-0.010681	-0.018463	0.025635	0.010681	0.27802	0.029602	0.006561	0.005341	-0.020294	-0.063324	-0.08728	0.002289	-0.046387	-0.7341	-0.13504	0.04425	0.26123	-0.11643	0.072021	0.033569	0.060272	-0.031738	0.068054	-0.003815	-0.067444	0.30868	-0.002136	-0.016174
58.432	-0.021973	0.29098	-0.00351	0.026093	-0.012817	-0.021362	0.035248	0.002594	0.27985	0.012054	0.009155	0.005798	-0.045013	-0.039368	-0.034332	-0.004425	-0.020142	-0.73975	0.055237	0.035706	0.16708	-0.19165	-0.033722	-0.017548	0.14557	-0.015717	0.16571	-0.007477	-0.061493	0.22171	-0.003204	-0.018921
58.433	-0.014801	0.3186	0.033569	-0.003052	-0.006866	-0.034332	0.016479	0.008087	0.28839	-0.006409	0.044861	-0.002899	-0.04715	-0.047607	0.02533	0.00061	-0.003052	-0.65048	0.005646	-0.025482	0.052643	-0.16296	0.092163	0.16861	0.26215	-0.016937	0.29205	-0.014801	-0.063782	-0.27466	-0.001221	-0.010681
58.434	-0.009613	0.28183	-0.035248	-0.041962	-0.003357	-0.036163	0.010071	0.004272	0.28854	-0.008392	0.074463	0.011139	-0.007477	-0.046844	0.10178	-0.007782	0.00351	-0.65796	-0.22644	-0.052795	0.035095	-0.091248	0.25986	0.18143	0.12894	-0.023346	0.27206	-0.021667	-0.004425	-0.50858	-0.004883	-0.004272
58.435	0.005188	0.27649	-0.083008	-0.020905	-0.003052	-0.046539	0.016479	0.008698	0.28641	-0.019684	-0.032501	0.004272	0.068359	-0.024261	0.032196	-0.007019	-0.01358	-0.68466	-0.08667	-0.075531	-0.033875	-0.099487	0.18112	0.16754	0.040283	-0.055237	0.36484	0.037994	0.062103	-0.3923	-0.00351	0.001373
